<?xml version="1.0" encoding="utf-8"?>
<!-- Generator: Adobe Illustrator 21.0.0, SVG Export Plug-In . SVG Version: 6.00 Build 0)  -->
<svg version="1.1" id="Layer_1" xmlns="http://www.w3.org/2000/svg" xmlns:xlink="http://www.w3.org/1999/xlink" x="0px" y="0px"
	 viewBox="0 0 1366 768" style="enable-background:new 0 0 1366 768;" xml:space="preserve">
<style type="text/css">
	.st0{fill:none;stroke:#000000;stroke-width:22.3641;}
	.st1{fill:none;stroke:#000000;stroke-width:17.1922;}
</style>
<g>
	<polygon class="st0" points="683,287.8 728.1,256.2 742.3,309.4 797.1,314.2 773.8,364 812.7,402.9 762.9,426.1 767.7,480.9 
		714.5,466.7 683,511.8 651.5,466.7 598.3,480.9 603.1,426.1 553.3,402.9 592.2,364 568.9,314.2 623.7,309.4 637.9,256.2 	"/>
	<polygon class="st1" points="654.3,458.8 606,471.8 610.4,421.9 565.1,400.8 600.5,365.5 579.3,320.2 629.1,315.8 642,267.5
		683,296.2 724,267.5 736.9,315.8 786.7,320.2 765.5,365.5 800.9,400.8 755.6,421.9 760,471.8 711.7,458.8 683,499.8 	"/>
</g>
</svg>
