<?xml version="1.0" encoding="utf-8"?>
<!-- Generator: Adobe Illustrator 21.0.0, SVG Export Plug-In . SVG Version: 6.00 Build 0)  -->
<svg version="1.1" id="Layer_1" xmlns="http://www.w3.org/2000/svg" xmlns:xlink="http://www.w3.org/1999/xlink" x="0px" y="0px"
	 viewBox="0 0 1366 768" style="enable-background:new 0 0 1366 768;" xml:space="preserve">
<style type="text/css">
	.st0{fill:none;stroke:#000000;stroke-width:3.6523;}
</style>
<path class="st0" d="M639.9,330h27.6l-1.5,7.1h18c10.6,0.2,15.5,3,14.8,8.5l1.7-8.4h13.7c13.9,0,19.9,4.7,18,13.9L720,413.2h-27.5
	l12.6-62.6l-7.2,0.1l-11.2,56l-27.5,0.1l11.2-56.2l-6.8,0.1l-10.1,48.8h-27.4L639.9,330z M730.4,411.7l8.6,0.1l2,7.5
	c2.6,13.6-0.3,19.1-9.7,19l-45.1-0.5l-5.2-19.7l45.6,0.6l-1.5-7.1L730.4,411.7z"/>
</svg>
